# xmcd
#
# Track frame offsets:
#	150
#	11924
#	25090
#	37552
#	49128
#	61960
#	74523
#	86350
#	98590
#	111885
#
# Disc length: 1663 seconds
#
# Revision: 2
# Processed by: cddbd v1.5.1PL0 Copyright (c) Steve Scherf et al.
# Submitted via: audiograbber 1.83.01
#
DISCID=74067d0a
DTITLE=Roy Acuff - Wabash Cannonball - The Very Best Of
DYEAR=1900
DGENRE=Classic
TTITLE0=Wabash Cannonball
TTITLE1=Great Speckled Bird
TTITLE2=The Wreck On The Highway
TTITLE3=Fire Ball Mail
TTITLE4=Mule Skinner Blues
TTITLE5=Pins And Needles (In My Heart)
TTITLE6=Freight Train Blues
TTITLE7=I Saw The Light
TTITLE8=Tennessee Waltz
TTITLE9=(Our Own) Jole Blon
EXTD=
EXTT0=
EXTT1=
EXTT2=
EXTT3=
EXTT4=
EXTT5=
EXTT6=
EXTT7=
EXTT8=
EXTT9=
PLAYORDER=
